<svg width="512" height="512" viewBox="0 0 512 512" fill="none" xmlns="http://www.w3.org/2000/svg">
<rect width="512" height="512" rx="100" fill="#2B3440"/>
<path d="M183.572 107.035C175.932 109.053 170.095 112.44 164.329 118.206C154.672 127.863 151.717 136.512 151.717 154.962V166.637L138.6 166.998C126.997 167.358 124.763 167.646 119.646 169.304C108.979 172.763 99.9703 180.331 95.1416 189.916C91.1777 197.772 90.457 201.88 90.457 216.15V228.834H255.498H420.539V216.366C420.539 202.024 419.674 197.267 415.71 189.628C412.179 182.925 404.467 175.07 398.125 171.971C390.414 168.223 386.738 167.502 372.468 167.07L359.279 166.637V154.962C359.279 136.512 356.324 127.863 346.667 118.206C340.829 112.296 335.136 109.053 327.136 107.035C321.803 105.666 318.992 105.594 255.21 105.666C192.22 105.666 188.545 105.738 183.572 107.035ZM323.172 129.809C327.496 131.107 332.109 135.215 334.415 139.827C335.64 142.278 335.856 144.512 336.073 154.746L336.361 166.854H255.57H174.779V156.187C174.779 142.494 175.644 139.179 180.617 134.35C186.671 128.44 182.563 128.728 255.21 128.728C311.425 128.656 319.857 128.8 323.172 129.809Z" fill="white"/>
<path d="M90.4575 310.49C90.4575 374.848 90.3134 372.83 94.9259 382.344C98.3853 389.479 106.601 397.406 114.313 401.01C121.808 404.541 126.565 405.406 137.231 405.406C144.799 405.334 145.375 405.262 143.429 404.397C140.763 403.244 137.447 399.496 136.871 396.974C136.222 394.452 137.087 378.308 138.024 375.137C139.249 370.74 142.636 368.218 150.204 365.984L156.978 363.966L158.564 359.281C159.429 356.687 161.159 352.507 162.384 349.984L164.546 345.372L161.014 338.597C157.195 331.39 156.906 329.66 158.564 325.696C161.591 318.489 180.113 299.967 187.32 296.94C191.284 295.283 193.014 295.571 200.293 299.463L207.139 302.994L211.68 300.76C214.202 299.535 218.31 297.805 220.905 296.94L225.517 295.355L227.535 288.652C229.842 280.869 232.364 277.626 237.121 276.184C241.084 275.031 269.913 275.031 273.876 276.184C278.633 277.626 281.156 280.869 283.462 288.652L285.48 295.355L290.092 296.94C292.687 297.805 296.867 299.535 299.389 300.76L304.002 302.994L310.776 299.391C314.524 297.445 318.416 295.859 319.569 295.859C323.173 295.859 328.794 299.463 336.434 306.742C344.938 314.742 350.776 321.733 352.505 325.841C354.019 329.444 353.37 332.399 349.55 339.534L346.379 345.3L348.613 349.984C349.839 352.507 351.568 356.687 352.433 359.281L354.019 363.894L360.649 365.84C368.217 368.074 371.748 370.668 372.973 375.137C373.91 378.308 374.775 394.452 374.126 396.974C373.55 399.496 370.234 403.244 367.568 404.397C365.622 405.262 366.199 405.334 374.054 405.334C384.576 405.406 390.558 404.181 397.549 400.65C404.54 397.19 412.756 388.974 416.071 382.344C420.684 372.975 420.54 374.921 420.54 310.49V251.896H255.499H90.4575V310.49Z" fill="white"/>
<path d="M247.787 361.804C241.301 363.605 237.265 365.912 232.436 370.74C226.959 376.218 224.148 381.479 222.923 388.83C222.275 392.722 222.275 394.379 222.995 396.83C224.148 400.65 227.968 404.469 231.211 405.046C232.508 405.262 244.256 405.406 257.301 405.262L281.084 405.046L283.534 403.316C286.345 401.298 288.579 396.758 288.651 393.154C288.651 389.839 286.922 383.353 284.904 378.956C282.886 374.632 274.958 366.56 270.634 364.47C262.994 360.867 254.85 359.93 247.787 361.804Z" fill="white"/>
</svg>
